# xmcd CD database file
#
# Track frame offsets:
#	150
#	17346
#	34073
#	47186
#	68743
#	82883
#	97866
#	113946
#	130598
#	149608
#	161588
#	179903
#	196656
#	213633
#	225091
#	236013
#	248696
#	264801
#	280618
#	295551
#	313303
#
# Disc length: 4395 seconds
#
# Revision: 1
# Processed by: cddbd v1.5.2PL0 Copyright (c) Steve Scherf et al.
# Submitted via: CDex 1.70beta2
#
DISCID=19112915
DTITLE=Jones Country - Jones Country JCY-008
DYEAR=0000
DGENRE=Country
TTITLE0=Anne Murray/Broken Hearted Me
TTITLE1=Anne Murray/Time Don't Run Out On Me
TTITLE2=Willie Nelson/Forgiving You Was Easy
TTITLE3=Willie Nelson/Uncloudy Day
TTITLE4=Willie Nelson and Leon Russell/Heartbreak Hotel
TTITLE5=Nitty Gritty Dirt Band/Dance Little Jean
TTITLE6=Nitty Gritty Dirt Band/I Love Only You
TTITLE7=Nitty Gritty Dirt Band/Mr Bojangles
TTITLE8=Oak Ridge Boys/Beautiful You
TTITLE9=Oak Ridge Boys/Cryin' Again
TTITLE10=Oak Ridge Boys/Everyday
TTITLE11=Oak Ridge Boys/Fancy Free
TTITLE12=Oak Ridge Boys/I'll Be True To You
TTITLE13=Buck Owens/My Heart Skips A Beat
TTITLE14=Buck Owens/Waitin' In Your Welfare Line
TTITLE15=Dolly Parton/Nine To Five
TTITLE16=Dolly Parton/Heartbreaker
TTITLE17=Dolly Parton/Old Flames Can't Hold A Candle To You
TTITLE18=Dolly Parton/You're The Only One
TTITLE19=Dolly Parton, Emmylou Harris and Linda Ronstadt/To Know Him Is To Love Him
TTITLE20=Emmylou Harris, Dolly Parton and Linda Ronstadt/Wildflowers
EXTD=YEAR: 0000
EXTT0=
EXTT1=
EXTT2=
EXTT3=
EXTT4=
EXTT5=
EXTT6=
EXTT7=
EXTT8=
EXTT9=
EXTT10=
EXTT11=
EXTT12=
EXTT13=
EXTT14=
EXTT15=
EXTT16=
EXTT17=
EXTT18=
EXTT19=
EXTT20=
PLAYORDER=
